P3
52 52
255
0 0 0 0 0 0 0 0 0 0 0 0 0 0 0 0 0 0 0 0 0 0 0 0 0 0 0 0 0 0 0 0 0 0 0 0 0 0 0 0 0 0 0 0 0 0 0 0 0 0 0 0 0 0 0 0 0 0 0 0 0 0 0 0 0 0 0 0 0 0 0 0 0 0 0 0 0 0 0 0 0 0 0 0 0 0 0 0 0 0 0 0 0 0 0 0 0 0 0 0 0 0 0 0 0 0 0 0 0 0 0 0 0 0 0 0 0 0 0 0 0 0 0 0 0 0 0 0 0 0 0 0 0 0 0 0 0 0 0 0 0 0 0 0 0 0 0 0 0 0 0 0 0 0 0 0 
0 0 0 255 145 0 255 145 0 255 255 255 255 255 255 255 255 255 255 255 255 255 255 255 255 255 255 255 145 0 255 255 255 255 255 255 255 255 255 255 255 255 255 255 255 255 255 255 255 145 0 255 255 255 255 145 0 255 145 0 255 255 255 255 255 255 255 255 255 255 255 255 255 255 255 255 255 255 255 255 255 255 255 255 255 255 255 255 255 255 255 255 255 255 255 255 255 255 255 255 255 255 255 145 0 255 255 255 255 255 255 255 145 0 190 190 190 255 255 255 255 255 255 255 145 0 255 255 255 255 255 255 255 255 255 255 255 255 255 255 255 255 255 255 255 255 255 255 255 255 255 255 255 0 0 0 
0 0 0 255 145 0 255 145 0 255 145 0 255 255 255 255 255 255 255 145 0 255 145 0 255 255 255 255 145 0 255 145 0 255 145 0 255 145 0 255 145 0 255 145 0 255 255 255 255 145 0 255 145 0 255 255 255 255 145 0 255 145 0 255 145 0 255 145 0 255 145 0 255 145 0 255 145 0 255 255 255 255 255 255 255 255 255 255 255 255 255 255 255 255 255 255 255 145 0 255 255 255 255 145 0 255 255 255 255 255 255 255 255 255 255 255 255 190 190 190 255 255 255 255 145 0 255 145 0 255 145 0 255 255 255 255 255 255 255 145 0 255 255 255 255 255 255 255 145 0 255 255 255 0 0 0 
0 0 0 255 255 255 255 255 255 255 255 255 255 255 255 255 255 255 255 255 255 255 255 255 255 145 0 255 145 0 255 145 0 255 145 0 255 145 0 255 255 255 255 255 255 255 255 255 255 255 255 255 255 255 255 145 0 255 255 255 255 145 0 255 255 255 255 145 0 255 145 0 255 255 255 255 255 255 255 145 0 255 145 0 255 145 0 255 255 255 255 255 255 255 255 255 255 255 255 255 255 255 255 145 0 255 145 0 255 255 255 255 255 255 190 190 190 255 255 255 255 255 255 255 145 0 255 255 255 255 145 0 255 255 255 255 255 255 255 255 255 255 255 255 255 145 0 255 255 255 255 145 0 0 0 0 
0 0 0 255 145 0 255 255 255 255 255 255 255 145 0 255 255 255 255 145 0 255 255 255 255 145 0 255 255 255 255 145 0 255 145 0 255 145 0 255 255 255 255 255 255 255 145 0 255 255 255 255 145 0 255 255 255 255 255 255 255 145 0 255 255 255 255 255 255 255 255 255 255 255 255 255 255 255 255 255 255 255 255 255 255 145 0 255 255 255 255 145 0 255 255 255 255 145 0 255 145 0 255 255 255 255 255 255 255 145 0 255 145 0 255 145 0 255 255 255 255 255 255 255 255 255 255 145 0 255 255 255 255 145 0 255 255 255 255 145 0 255 255 255 255 255 255 255 145 0 255 145 0 0 0 0 
0 0 0 255 145 0 255 145 0 255 145 0 255 255 255 255 255 255 255 255 255 255 145 0 255 255 255 255 255 255 255 145 0 255 145 0 255 255 255 255 255 255 255 145 0 255 255 255 255 145 0 255 255 255 255 255 255 255 145 0 255 255 255 255 255 255 255 255 255 255 145 0 255 145 0 255 255 255 255 145 0 255 255 255 255 255 255 255 255 255 255 255 255 255 145 0 255 255 255 255 145 0 255 145 0 255 145 0 255 255 255 255 255 255 255 145 0 255 255 255 255 255 255 255 145 0 255 255 255 255 255 255 255 145 0 255 145 0 255 255 255 255 255 255 255 255 255 255 255 255 255 145 0 0 0 0 
0 0 0 255 255 255 255 145 0 255 145 0 255 255 255 255 145 0 255 145 0 255 255 255 255 255 255 255 255 255 255 145 0 255 145 0 255 255 255 255 145 0 255 255 255 255 145 0 255 145 0 255 255 255 255 145 0 255 145 0 255 255 255 255 255 255 255 145 0 255 145 0 255 145 0 255 255 255 255 145 0 255 145 0 255 255 255 255 255 255 255 145 0 255 255 255 255 255 255 255 255 255 255 255 255 255 255 255 255 255 255 255 255 255 255 255 255 255 145 0 255 145 0 255 255 255 255 145 0 255 255 255 255 255 255 255 255 255 255 145 0 255 255 255 255 255 255 255 145 0 255 145 0 0 0 0 
0 0 0 255 255 255 255 255 255 255 255 255 255 145 0 255 255 255 255 255 255 255 255 255 255 145 0 255 255 255 255 255 255 255 145 0 255 145 0 255 255 255 255 255 255 255 255 255 255 145 0 255 255 255 255 145 0 255 145 0 255 145 0 255 145 0 255 145 0 255 145 0 255 145 0 255 255 255 255 255 255 255 145 0 255 255 255 255 255 255 255 255 255 255 255 255 255 255 255 255 255 255 255 255 255 255 145 0 255 145 0 255 255 255 255 255 255 255 145 0 255 255 255 255 145 0 255 255 255 255 255 255 255 255 255 255 255 255 255 145 0 255 255 255 255 255 255 255 255 255 255 145 0 0 0 0 
0 0 0 255 255 255 255 255 255 255 145 0 255 145 0 255 255 255 255 145 0 255 255 255 255 255 255 255 255 255 255 255 255 255 145 0 255 255 255 255 255 255 255 255 255 255 145 0 255 255 255 255 255 255 255 145 0 255 255 255 255 145 0 255 255 255 255 255 255 255 145 0 255 255 255 255 255 255 255 145 0 255 145 0 255 255 255 255 255 255 255 255 255 255 255 255 255 145 0 255 145 0 255 255 255 255 255 255 255 145 0 255 145 0 255 255 255 255 255 255 255 255 255 255 145 0 255 255 255 255 145 0 255 145 0 255 145 0 255 145 0 255 255 255 255 145 0 255 255 255 255 145 0 0 0 0 
0 0 0 255 145 0 255 145 0 255 255 255 255 255 255 255 145 0 255 145 0 255 255 255 255 255 255 255 145 0 255 255 255 255 145 0 255 145 0 255 255 255 255 255 255 255 255 255 255 255 255 255 145 0 255 145 0 255 145 0 255 255 255 255 255 255 255 145 0 255 255 255 255 255 255 255 255 255 255 255 255 255 255 255 255 255 255 255 255 255 255 255 255 255 255 255 255 255 255 255 255 255 255 255 255 255 255 255 255 145 0 255 145 0 255 145 0 255 255 255 255 255 255 255 255 255 255 145 0 255 145 0 255 145 0 255 255 255 255 255 255 255 145 0 255 145 0 255 255 255 255 145 0 0 0 0 
0 0 0 255 255 255 255 255 255 255 145 0 255 255 255 255 145 0 255 255 255 255 255 255 255 255 255 255 255 255 255 255 255 255 145 0 255 145 0 255 255 255 255 255 255 255 255 255 255 145 0 255 145 0 255 255 255 255 255 255 255 145 0 255 145 0 255 145 0 255 145 0 255 255 255 255 255 255 255 255 255 255 145 0 255 255 255 255 255 255 255 145 0 255 255 255 255 255 255 255 255 255 255 255 255 255 255 255 255 145 0 255 145 0 255 255 255 255 145 0 255 255 255 255 255 255 255 145 0 255 145 0 255 255 255 255 145 0 255 145 0 255 255 255 255 145 0 255 145 0 255 255 255 0 0 0 
0 0 0 255 255 255 255 255 255 255 255 255 255 255 255 255 255 255 255 255 255 255 255 255 255 255 255 255 145 0 255 145 0 255 255 255 255 145 0 255 145 0 255 255 255 255 255 255 255 255 255 255 255 255 255 145 0 255 255 255 255 145 0 255 255 255 255 255 255 255 255 255 255 255 255 255 145 0 255 255 255 255 255 255 255 145 0 255 145 0 255 145 0 255 145 0 255 255 255 255 255 255 255 255 255 255 255 255 255 255 255 255 255 255 255 145 0 255 145 0 255 145 0 255 255 255 255 145 0 255 255 255 255 145 0 255 145 0 255 255 255 255 255 255 255 145 0 255 255 255 255 255 255 0 0 0 
0 0 0 255 145 0 255 145 0 255 255 255 255 145 0 255 255 255 255 145 0 255 255 255 255 145 0 255 255 255 255 145 0 255 255 255 255 145 0 255 255 255 255 145 0 255 255 255 255 145 0 255 255 255 255 255 255 255 145 0 255 255 255 255 255 255 255 255 255 255 145 0 255 255 255 255 145 0 255 255 255 255 255 255 255 255 255 255 145 0 255 255 255 255 145 0 255 145 0 255 255 255 255 255 255 255 145 0 255 255 255 255 255 255 255 145 0 255 145 0 255 255 255 255 255 255 255 255 255 255 145 0 255 255 255 255 255 255 255 255 255 255 145 0 255 255 255 255 145 0 255 145 0 0 0 0 
0 0 0 255 145 0 255 255 255 255 255 255 255 255 255 255 145 0 255 145 0 255 145 0 255 255 255 255 255 255 255 145 0 255 255 255 255 255 255 255 255 255 255 145 0 255 145 0 255 145 0 255 255 255 255 255 255 255 255 255 255 145 0 255 145 0 255 145 0 255 145 0 255 145 0 255 145 0 255 145 0 255 255 255 255 255 255 255 255 255 255 145 0 255 255 255 255 145 0 255 145 0 255 145 0 255 145 0 255 255 255 255 255 255 255 255 255 255 255 255 255 145 0 255 145 0 255 255 255 255 255 255 255 145 0 255 145 0 255 145 0 255 145 0 255 255 255 255 145 0 255 145 0 0 0 0 
0 0 0 255 255 255 255 255 255 255 255 255 255 255 255 255 145 0 255 255 255 255 255 255 255 145 0 255 145 0 255 145 0 255 255 255 255 145 0 255 145 0 255 255 255 255 145 0 255 145 0 255 145 0 255 255 255 255 145 0 255 255 255 255 145 0 255 255 255 255 145 0 255 145 0 255 255 255 255 255 255 255 145 0 255 145 0 255 145 0 255 145 0 255 255 255 255 255 255 255 255 255 255 145 0 255 145 0 255 145 0 255 255 255 255 145 0 255 145 0 255 255 255 255 255 255 255 255 255 255 145 0 255 255 255 255 255 255 255 145 0 255 145 0 255 145 0 255 255 255 255 255 255 0 0 0 
0 0 0 255 255 255 255 145 0 255 145 0 255 255 255 255 255 255 255 255 255 255 145 0 255 145 0 255 145 0 255 145 0 255 255 255 255 145 0 255 255 255 255 255 255 255 255 255 255 255 255 255 145 0 255 255 255 255 255 255 255 145 0 255 255 255 255 145 0 190 190 190 255 255 255 255 255 255 255 255 255 255 255 255 255 255 255 255 255 255 255 255 255 255 255 255 255 145 0 255 255 255 255 145 0 255 145 0 255 145 0 255 255 255 255 145 0 255 255 255 255 145 0 255 145 0 255 255 255 255 255 255 255 255 255 255 255 255 255 255 255 255 145 0 255 255 255 255 145 0 255 255 255 0 0 0 
0 0 0 255 145 0 255 255 255 255 255 255 255 255 255 255 145 0 255 255 255 255 255 255 255 255 255 255 145 0 255 255 255 255 145 0 255 255 255 255 145 0 255 145 0 255 145 0 255 255 255 255 255 255 255 255 255 255 255 255 255 255 255 255 255 255 255 145 0 255 145 0 255 255 255 255 255 255 255 255 255 255 255 255 255 255 255 255 255 255 255 145 0 255 255 255 255 255 255 255 145 0 255 255 255 255 145 0 255 145 0 255 255 255 255 145 0 255 255 255 255 255 255 255 145 0 255 255 255 255 145 0 255 145 0 255 145 0 255 145 0 255 145 0 255 145 0 255 145 0 255 255 255 0 0 0 
0 0 0 255 145 0 255 145 0 255 145 0 255 255 255 255 145 0 255 255 255 255 255 255 255 145 0 255 255 255 255 145 0 255 255 255 255 145 0 255 255 255 255 255 255 255 145 0 255 255 255 255 255 255 255 145 0 255 255 255 255 145 0 255 145 0 255 145 0 255 145 0 255 255 255 255 255 255 255 255 255 255 255 255 255 255 255 255 255 255 255 145 0 255 255 255 255 145 0 255 145 0 255 255 255 255 255 255 255 145 0 255 145 0 255 145 0 255 145 0 255 255 255 255 255 255 255 145 0 255 145 0 255 255 255 255 255 255 255 145 0 255 255 255 255 255 255 255 255 255 255 255 255 0 0 0 
0 0 0 255 145 0 255 255 255 255 255 255 255 145 0 255 145 0 255 145 0 255 255 255 255 255 255 255 255 255 255 145 0 255 145 0 255 145 0 255 255 255 255 255 255 255 255 255 255 145 0 255 145 0 255 255 255 255 255 255 255 255 255 255 145 0 255 255 255 255 145 0 255 255 255 255 145 0 255 255 255 255 255 255 255 145 0 255 145 0 255 255 255 255 255 255 255 255 255 255 145 0 255 255 255 255 255 255 255 145 0 255 145 0 255 255 255 255 255 255 255 145 0 255 255 255 255 255 255 255 145 0 255 255 255 255 255 255 255 145 0 255 255 255 255 145 0 255 255 255 255 255 255 0 0 0 
0 0 0 255 145 0 255 145 0 255 145 0 255 255 255 255 145 0 255 255 255 255 255 255 255 255 255 255 255 255 255 145 0 255 145 0 255 255 255 255 255 255 255 145 0 255 145 0 255 255 255 255 255 255 255 255 255 255 255 255 255 255 255 255 255 255 255 255 255 255 255 255 255 255 255 255 255 255 255 145 0 255 145 0 255 145 0 255 255 255 255 255 255 255 255 255 255 145 0 255 255 255 255 145 0 255 255 255 255 255 255 255 255 255 255 145 0 255 145 0 255 255 255 255 255 255 255 145 0 255 255 255 255 255 255 255 145 0 255 255 255 255 145 0 255 145 0 255 255 255 255 145 0 0 0 0 
0 0 0 255 145 0 255 255 255 255 255 255 255 145 0 255 145 0 255 145 0 255 145 0 255 255 255 255 255 255 255 255 255 255 255 255 255 145 0 255 255 255 255 255 255 255 255 255 255 255 255 255 255 255 255 255 255 255 255 255 255 255 255 255 255 255 255 255 255 255 145 0 255 255 255 255 145 0 255 255 255 255 145 0 255 255 255 255 255 255 255 255 255 255 145 0 255 145 0 255 255 255 255 255 255 255 145 0 255 255 255 255 255 255 255 145 0 255 255 255 255 145 0 255 255 255 255 255 255 255 255 255 255 255 255 255 255 255 255 255 255 255 255 255 255 255 255 255 145 0 255 255 255 0 0 0 
0 0 0 255 255 255 255 145 0 255 255 255 255 145 0 255 255 255 255 255 255 255 145 0 255 255 255 255 255 255 255 255 255 255 255 255 255 255 255 255 255 255 255 255 255 255 145 0 255 255 255 255 255 255 255 145 0 255 145 0 255 145 0 255 145 0 255 255 255 255 255 255 255 145 0 255 255 255 255 145 0 255 145 0 255 145 0 255 255 255 255 145 0 255 255 255 255 145 0 255 255 255 255 255 255 255 255 255 255 255 255 255 255 255 255 255 255 255 255 255 255 145 0 255 255 255 255 255 255 255 145 0 255 145 0 255 255 255 255 145 0 255 255 255 255 145 0 255 255 255 255 255 255 0 0 0 
0 0 0 255 255 255 255 145 0 255 255 255 255 255 255 255 145 0 255 145 0 255 145 0 255 255 255 255 255 255 255 255 255 255 145 0 255 145 0 255 145 0 255 145 0 255 255 255 255 255 255 255 145 0 255 255 255 255 255 255 255 145 0 255 145 0 255 255 255 255 255 255 255 255 255 255 255 255 255 255 255 255 255 255 255 255 255 255 145 0 255 255 255 255 255 255 255 255 255 255 255 255 255 255 255 255 255 255 255 145 0 255 255 255 255 255 255 255 255 255 255 145 0 255 255 255 255 145 0 255 255 255 255 255 255 255 145 0 255 255 255 255 255 255 255 255 255 255 255 255 255 255 255 0 0 0 
0 0 0 255 145 0 255 255 255 255 145 0 255 145 0 255 145 0 255 255 255 255 145 0 255 255 255 255 145 0 255 145 0 255 255 255 255 145 0 255 255 255 255 255 255 255 255 255 255 255 255 255 255 255 255 255 255 255 145 0 255 255 255 255 145 0 255 255 255 255 255 255 255 255 255 255 255 255 255 145 0 255 145 0 255 255 255 255 145 0 255 255 255 255 255 255 255 145 0 255 255 255 255 255 255 255 145 0 255 255 255 255 145 0 255 255 255 255 145 0 255 255 255 255 145 0 255 255 255 255 145 0 255 255 255 255 145 0 255 255 255 255 255 255 255 255 255 255 255 255 255 255 255 0 0 0 
0 0 0 255 145 0 255 255 255 255 145 0 255 255 255 255 145 0 255 255 255 255 145 0 255 145 0 255 145 0 255 255 255 255 145 0 255 145 0 255 145 0 255 255 255 255 255 255 255 145 0 255 255 255 255 145 0 255 145 0 255 145 0 255 255 255 255 255 255 255 145 0 255 145 0 255 255 255 255 255 255 255 255 255 255 255 255 255 145 0 255 255 255 255 145 0 255 255 255 255 145 0 255 145 0 255 255 255 255 145 0 255 145 0 255 145 0 255 145 0 255 255 255 255 255 255 255 145 0 255 145 0 255 145 0 255 255 255 255 255 255 255 145 0 255 145 0 255 255 255 255 145 0 0 0 0 
0 0 0 255 255 255 255 255 255 255 255 255 255 145 0 255 145 0 255 255 255 255 145 0 255 145 0 255 255 255 255 145 0 255 255 255 255 255 255 255 145 0 255 255 255 255 255 255 255 255 255 255 255 255 255 255 255 255 145 0 255 145 0 255 255 255 255 145 0 255 145 0 255 255 255 255 145 0 255 255 255 255 145 0 255 145 0 255 255 255 255 145 0 255 255 255 255 255 255 255 255 255 255 255 255 255 255 255 255 255 255 255 145 0 255 255 255 255 145 0 255 145 0 255 255 255 255 255 255 255 255 255 255 255 255 255 255 255 255 255 255 255 255 255 255 145 0 255 255 255 255 145 0 0 0 0 
0 0 0 255 255 255 255 145 0 255 255 255 255 255 255 255 145 0 255 255 255 255 145 0 255 145 0 255 145 0 255 255 255 255 145 0 255 145 0 255 255 255 255 145 0 255 145 0 255 255 255 255 145 0 255 255 255 255 255 255 255 255 255 255 145 0 255 145 0 255 255 255 255 255 255 255 255 255 255 145 0 255 145 0 255 255 255 255 145 0 255 255 255 255 255 255 255 255 255 255 255 255 255 145 0 255 145 0 255 145 0 255 145 0 255 145 0 255 255 255 255 145 0 255 255 255 255 145 0 255 145 0 255 255 255 255 145 0 255 145 0 255 255 255 255 145 0 255 255 255 255 255 255 0 0 0 
0 0 0 255 255 255 255 255 255 255 255 255 255 255 255 255 145 0 255 255 255 255 255 255 255 255 255 255 255 255 255 255 255 255 145 0 255 145 0 255 145 0 255 255 255 255 255 255 255 145 0 255 145 0 255 255 255 255 145 0 255 255 255 255 145 0 255 255 255 255 145 0 255 255 255 255 255 255 255 255 255 255 255 255 255 145 0 255 145 0 255 255 255 255 255 255 255 255 255 255 255 255 255 255 255 255 145 0 255 145 0 255 255 255 255 145 0 255 255 255 255 255 255 255 145 0 255 145 0 255 255 255 255 145 0 255 255 255 255 145 0 255 255 255 255 145 0 255 255 255 255 255 255 0 0 0 
0 0 0 255 255 255 255 255 255 255 255 255 255 145 0 255 145 0 255 255 255 255 255 255 255 255 255 255 255 255 255 255 255 255 255 255 255 255 255 255 145 0 255 145 0 255 255 255 255 255 255 255 255 255 255 255 255 255 145 0 255 255 255 255 145 0 255 255 255 255 255 255 255 255 255 255 255 255 255 255 255 255 145 0 255 255 255 255 145 0 255 255 255 255 255 255 255 255 255 255 145 0 255 145 0 255 255 255 255 145 0 255 255 255 255 255 255 255 145 0 255 255 255 255 255 255 255 255 255 255 145 0 255 145 0 255 255 255 255 255 255 255 255 255 255 255 255 255 255 255 255 145 0 0 0 0 
0 0 0 255 255 255 255 255 255 255 255 255 255 255 255 255 145 0 255 255 255 255 255 255 255 255 255 255 255 255 255 255 255 255 255 255 255 255 255 255 255 255 255 145 0 255 255 255 255 255 255 255 145 0 255 145 0 255 255 255 255 255 255 255 145 0 255 145 0 255 145 0 255 255 255 255 255 255 255 255 255 255 255 255 255 145 0 255 145 0 255 145 0 255 145 0 255 145 0 255 255 255 255 255 255 255 255 255 255 145 0 255 145 0 255 255 255 255 145 0 255 145 0 255 145 0 255 145 0 255 255 255 255 255 255 255 145 0 255 145 0 255 255 255 255 255 255 255 145 0 255 145 0 0 0 0 
0 0 0 255 255 255 255 255 255 255 255 255 255 145 0 255 255 255 255 255 255 255 255 255 255 255 255 255 255 255 255 255 255 255 145 0 255 255 255 255 145 0 255 255 255 255 255 255 255 145 0 255 145 0 255 145 0 255 145 0 255 145 0 255 255 255 255 255 255 255 145 0 255 145 0 255 255 255 255 255 255 255 255 255 255 145 0 255 145 0 255 255 255 255 255 255 255 255 255 255 255 255 255 255 255 255 255 255 255 255 255 255 255 255 255 255 255 255 255 255 255 255 255 255 145 0 255 255 255 255 255 255 255 255 255 255 145 0 255 145 0 255 145 0 255 145 0 255 255 255 255 255 255 0 0 0 
0 0 0 255 255 255 255 255 255 255 145 0 255 255 255 255 255 255 255 255 255 255 255 255 255 255 255 255 255 255 255 255 255 255 255 255 255 255 255 255 255 255 255 255 255 255 255 255 255 145 0 255 145 0 255 255 255 255 255 255 255 255 255 255 255 255 255 255 255 255 145 0 255 145 0 255 255 255 255 145 0 255 145 0 255 145 0 255 255 255 255 255 255 255 255 255 255 145 0 255 255 255 255 255 255 255 145 0 255 145 0 255 255 255 255 255 255 255 145 0 255 145 0 255 255 255 255 145 0 255 145 0 255 255 255 255 145 0 255 145 0 255 145 0 255 255 255 255 255 255 255 255 255 0 0 0 
0 0 0 255 145 0 255 145 0 255 145 0 255 145 0 255 255 255 255 145 0 255 145 0 255 145 0 255 145 0 255 145 0 255 255 255 255 255 255 255 145 0 255 255 255 255 145 0 255 255 255 255 145 0 255 145 0 255 255 255 255 255 255 255 255 255 255 255 255 255 145 0 255 255 255 255 255 255 255 255 255 255 145 0 255 145 0 255 145 0 255 255 255 255 145 0 255 145 0 255 255 255 255 145 0 255 255 255 255 145 0 255 145 0 255 145 0 255 255 255 255 145 0 255 255 255 255 255 255 255 145 0 255 255 255 255 145 0 255 255 255 255 255 255 255 255 255 255 255 255 255 145 0 0 0 0 
0 0 0 255 255 255 255 145 0 255 255 255 255 255 255 255 255 255 255 255 255 255 145 0 255 145 0 255 145 0 255 145 0 255 255 255 255 255 255 255 255 255 255 255 255 255 255 255 255 255 255 255 145 0 255 255 255 255 255 255 255 145 0 255 255 255 255 255 255 255 255 255 255 255 255 255 145 0 255 255 255 255 255 255 255 255 255 255 145 0 255 145 0 255 255 255 255 145 0 255 145 0 255 145 0 255 255 255 255 255 255 255 145 0 255 255 255 255 255 255 255 255 255 255 255 255 255 145 0 255 255 255 255 145 0 255 145 0 255 255 255 255 255 255 255 145 0 255 145 0 255 145 0 0 0 0 
0 0 0 255 255 255 255 145 0 255 255 255 255 255 255 255 145 0 255 145 0 255 145 0 255 145 0 255 255 255 255 145 0 255 255 255 255 255 255 255 145 0 255 255 255 255 255 255 255 145 0 255 255 255 255 145 0 255 145 0 255 255 255 255 255 255 255 145 0 255 255 255 255 145 0 255 145 0 255 255 255 255 145 0 255 145 0 255 145 0 255 255 255 255 145 0 255 255 255 255 255 255 255 255 255 255 145 0 255 255 255 255 145 0 255 255 255 255 145 0 255 255 255 255 145 0 255 145 0 255 255 255 255 145 0 255 145 0 255 145 0 255 145 0 255 255 255 255 145 0 255 255 255 0 0 0 
0 0 0 255 255 255 255 145 0 255 145 0 255 255 255 255 255 255 255 145 0 255 255 255 255 145 0 255 145 0 255 145 0 255 255 255 255 255 255 255 145 0 255 145 0 255 145 0 255 145 0 255 255 255 255 255 255 255 255 255 255 255 255 255 145 0 255 255 255 255 145 0 255 255 255 255 255 255 255 255 255 255 145 0 255 145 0 255 145 0 255 145 0 255 255 255 255 145 0 255 255 255 255 145 0 255 255 255 255 145 0 255 255 255 255 255 255 255 145 0 255 145 0 255 145 0 255 255 255 255 145 0 255 255 255 255 255 255 255 145 0 255 255 255 255 145 0 255 255 255 255 255 255 0 0 0 
0 0 0 255 145 0 255 145 0 255 145 0 255 255 255 255 145 0 255 145 0 255 145 0 255 255 255 255 145 0 255 145 0 255 145 0 255 145 0 255 255 255 255 255 255 255 145 0 255 145 0 255 145 0 255 255 255 255 255 255 255 145 0 255 145 0 255 255 255 255 145 0 255 255 255 255 145 0 255 145 0 255 255 255 255 145 0 255 255 255 255 255 255 255 255 255 255 255 255 255 255 255 255 145 0 255 255 255 255 255 255 255 145 0 255 255 255 255 145 0 255 255 255 255 255 255 255 255 255 255 145 0 255 255 255 255 255 255 255 255 255 255 255 255 255 255 255 255 145 0 255 145 0 0 0 0 
0 0 0 255 145 0 255 255 255 255 255 255 255 255 255 255 255 255 255 255 255 255 145 0 255 255 255 255 255 255 255 145 0 255 145 0 255 255 255 255 145 0 255 145 0 255 255 255 255 145 0 255 255 255 255 255 255 255 145 0 255 255 255 255 145 0 255 145 0 255 255 255 255 255 255 255 255 255 255 255 255 255 255 255 255 255 255 255 145 0 255 145 0 255 145 0 255 255 255 255 255 255 255 145 0 255 145 0 255 255 255 255 145 0 255 255 255 255 255 255 255 145 0 255 255 255 255 145 0 255 145 0 255 255 255 255 255 255 255 255 255 255 145 0 255 145 0 255 145 0 255 145 0 0 0 0 
0 0 0 255 145 0 255 145 0 255 145 0 255 255 255 255 145 0 255 145 0 255 255 255 255 145 0 255 255 255 255 145 0 255 255 255 255 255 255 255 145 0 255 145 0 255 255 255 255 145 0 255 255 255 255 255 255 255 145 0 255 255 255 255 255 255 255 255 255 255 255 255 255 145 0 255 145 0 255 255 255 255 255 255 255 255 255 255 255 255 255 145 0 255 255 255 255 145 0 255 255 255 255 255 255 255 145 0 255 145 0 255 255 255 255 255 255 255 255 255 255 255 255 255 255 255 255 255 255 255 255 255 255 145 0 255 145 0 255 255 255 255 145 0 255 145 0 255 145 0 255 255 255 0 0 0 
0 0 0 255 255 255 255 145 0 255 255 255 255 255 255 255 145 0 255 145 0 255 255 255 255 145 0 255 255 255 255 145 0 255 255 255 255 145 0 255 145 0 255 255 255 255 255 255 255 145 0 255 145 0 255 255 255 255 145 0 255 145 0 255 255 255 255 145 0 255 255 255 255 255 255 255 145 0 255 255 255 255 255 255 255 255 255 255 255 255 255 255 255 255 255 255 255 255 255 255 145 0 255 145 0 255 145 0 255 255 255 255 255 255 255 255 255 255 255 255 255 145 0 255 255 255 255 255 255 255 255 255 255 145 0 255 255 255 255 145 0 255 145 0 255 255 255 255 145 0 255 145 0 0 0 0 
0 0 0 255 145 0 255 255 255 255 255 255 255 255 255 255 145 0 255 255 255 255 255 255 255 145 0 255 145 0 255 145 0 255 145 0 255 255 255 255 255 255 255 255 255 255 255 255 255 255 255 255 145 0 255 145 0 255 255 255 255 255 255 255 255 255 255 145 0 255 145 0 255 255 255 255 255 255 255 145 0 255 145 0 255 255 255 255 255 255 255 255 255 255 255 255 255 255 255 255 145 0 255 255 255 255 145 0 255 255 255 255 255 255 255 255 255 255 255 255 255 255 255 255 145 0 255 255 255 255 145 0 255 255 255 255 255 255 255 145 0 255 145 0 255 145 0 255 145 0 255 145 0 0 0 0 
0 0 0 255 255 255 255 145 0 255 255 255 255 145 0 255 255 255 255 145 0 255 145 0 255 255 255 255 255 255 255 255 255 255 255 255 255 145 0 255 145 0 255 145 0 255 255 255 255 145 0 255 255 255 255 255 255 255 145 0 255 145 0 255 145 0 255 255 255 255 145 0 255 145 0 255 145 0 255 145 0 255 255 255 255 255 255 255 255 255 255 255 255 255 255 255 255 255 255 255 255 255 255 255 255 255 255 255 255 255 255 255 145 0 255 255 255 255 255 255 255 255 255 255 145 0 255 255 255 255 145 0 255 145 0 255 145 0 255 255 255 255 145 0 255 255 255 255 255 255 255 255 255 0 0 0 
0 0 0 255 255 255 255 255 255 255 145 0 255 145 0 255 255 255 255 255 255 255 255 255 255 145 0 255 145 0 255 145 0 255 145 0 255 145 0 255 145 0 255 255 255 255 145 0 255 255 255 255 255 255 255 255 255 255 255 255 255 255 255 255 255 255 255 255 255 255 145 0 255 255 255 255 145 0 255 145 0 255 255 255 255 255 255 255 255 255 255 145 0 255 255 255 255 145 0 255 145 0 255 145 0 255 255 255 255 145 0 255 145 0 255 255 255 255 255 255 255 255 255 255 255 255 255 145 0 255 145 0 255 145 0 255 255 255 255 255 255 255 255 255 255 255 255 255 255 255 255 255 255 0 0 0 
0 0 0 255 145 0 255 145 0 255 255 255 255 145 0 255 145 0 255 145 0 255 255 255 255 145 0 255 255 255 255 145 0 255 255 255 255 145 0 255 145 0 255 255 255 255 145 0 255 255 255 255 255 255 255 145 0 255 145 0 255 255 255 255 255 255 255 255 255 255 145 0 255 255 255 255 145 0 255 145 0 255 145 0 255 255 255 255 255 255 255 255 255 255 255 255 255 255 255 255 255 255 255 145 0 255 255 255 255 255 255 255 145 0 255 145 0 255 145 0 255 255 255 255 145 0 255 255 255 255 145 0 255 145 0 255 255 255 255 255 255 255 255 255 255 255 255 255 255 255 255 255 255 0 0 0 
0 0 0 255 255 255 255 145 0 255 145 0 255 255 255 255 255 255 255 255 255 255 145 0 255 255 255 255 255 255 255 255 255 255 255 255 255 145 0 255 145 0 255 255 255 255 255 255 255 145 0 255 255 255 255 255 255 255 255 255 255 255 255 255 145 0 255 255 255 255 255 255 255 255 255 255 255 255 255 145 0 255 145 0 255 145 0 255 255 255 255 255 255 255 145 0 255 255 255 255 255 255 255 145 0 255 145 0 255 145 0 255 255 255 255 145 0 255 255 255 255 145 0 255 255 255 255 255 255 255 255 255 255 255 255 255 145 0 255 255 255 255 255 255 255 255 255 255 255 255 255 255 255 0 0 0 
0 0 0 255 145 0 255 255 255 255 145 0 255 255 255 255 255 255 255 145 0 255 255 255 255 255 255 255 145 0 255 255 255 255 255 255 255 255 255 255 255 255 255 145 0 255 255 255 255 255 255 255 255 255 255 145 0 255 255 255 255 255 255 255 145 0 255 255 255 255 145 0 255 145 0 255 145 0 255 255 255 255 255 255 255 145 0 255 255 255 255 255 255 255 145 0 255 255 255 255 255 255 255 255 255 255 145 0 255 255 255 255 255 255 255 255 255 255 145 0 255 255 255 255 255 255 255 255 255 255 255 255 255 255 255 255 255 255 255 145 0 255 145 0 255 145 0 255 145 0 255 145 0 0 0 0 
0 0 0 255 255 255 255 145 0 255 145 0 255 255 255 255 145 0 255 255 255 255 145 0 255 145 0 255 145 0 255 145 0 255 145 0 255 145 0 255 255 255 255 255 255 255 145 0 255 145 0 255 255 255 255 145 0 255 145 0 255 255 255 255 145 0 255 255 255 255 255 255 255 255 255 255 255 255 255 145 0 255 255 255 255 145 0 255 255 255 255 255 255 255 145 0 255 255 255 255 145 0 255 255 255 255 145 0 255 255 255 255 145 0 255 255 255 255 255 255 255 145 0 255 255 255 255 145 0 255 145 0 255 255 255 255 255 255 255 255 255 255 255 255 255 255 255 255 145 0 255 255 255 0 0 0 
0 0 0 255 145 0 255 255 255 255 145 0 255 145 0 255 145 0 255 255 255 255 145 0 255 145 0 255 145 0 255 255 255 255 255 255 255 145 0 255 145 0 255 145 0 255 255 255 255 255 255 255 145 0 255 255 255 255 255 255 255 255 255 255 255 255 255 145 0 255 145 0 255 255 255 255 255 255 255 255 255 255 145 0 255 255 255 255 255 255 255 255 255 255 145 0 255 255 255 255 145 0 255 145 0 255 145 0 255 145 0 255 255 255 255 145 0 255 255 255 255 255 255 255 255 255 255 145 0 255 255 255 255 255 255 255 145 0 255 255 255 255 145 0 255 255 255 255 255 255 255 145 0 0 0 0 
0 0 0 255 255 255 255 255 255 255 255 255 255 145 0 255 255 255 255 255 255 255 255 255 255 255 255 255 255 255 255 255 255 255 255 255 255 255 255 255 145 0 255 255 255 255 255 255 255 145 0 255 145 0 255 145 0 255 145 0 255 255 255 255 145 0 255 255 255 255 255 255 255 255 255 255 255 255 255 255 255 255 255 255 255 255 255 255 145 0 255 145 0 255 255 255 255 255 255 255 145 0 255 145 0 255 255 255 255 145 0 255 255 255 255 145 0 255 255 255 255 255 255 255 145 0 255 255 255 255 255 255 255 255 255 255 255 255 255 145 0 255 255 255 255 255 255 255 145 0 255 145 0 0 0 0 
0 0 0 255 145 0 255 145 0 255 255 255 255 145 0 255 145 0 255 145 0 255 255 255 255 255 255 255 255 255 255 255 255 255 145 0 255 255 255 255 255 255 255 255 255 255 145 0 255 145 0 255 255 255 255 145 0 255 255 255 255 255 255 255 145 0 255 255 255 255 255 255 255 255 255 255 255 255 255 145 0 255 255 255 255 255 255 255 145 0 255 255 255 255 255 255 255 145 0 255 255 255 255 145 0 255 145 0 255 145 0 255 255 255 255 255 255 255 255 255 255 255 255 255 145 0 255 255 255 255 255 255 255 145 0 255 255 255 255 255 255 255 145 0 255 145 0 255 145 0 255 145 0 0 0 0 
0 0 0 255 255 255 255 255 255 255 145 0 255 255 255 255 255 255 255 145 0 255 145 0 255 255 255 255 255 255 255 255 255 255 255 255 255 255 255 255 255 255 255 255 255 255 255 255 255 255 255 255 145 0 255 255 255 255 255 255 255 255 255 255 255 255 255 255 255 255 145 0 255 145 0 255 255 255 255 255 255 255 145 0 255 255 255 255 255 255 255 255 255 255 255 255 255 145 0 255 145 0 255 255 255 255 255 255 255 145 0 255 145 0 255 255 255 255 255 255 255 255 255 255 255 255 255 255 255 255 255 255 255 255 255 255 255 255 255 255 255 255 255 255 255 255 255 255 255 255 255 255 255 0 0 0 
0 0 0 0 0 0 0 0 0 0 0 0 0 0 0 0 0 0 0 0 0 0 0 0 0 0 0 0 0 0 0 0 0 0 0 0 0 0 0 0 0 0 0 0 0 0 0 0 0 0 0 0 0 0 0 0 0 0 0 0 0 0 0 0 0 0 0 0 0 0 0 0 0 0 0 0 0 0 0 0 0 0 0 0 0 0 0 0 0 0 0 0 0 0 0 0 0 0 0 0 0 0 0 0 0 0 0 0 0 0 0 0 0 0 0 0 0 0 0 0 0 0 0 0 0 0 0 0 0 0 0 0 0 0 0 0 0 0 0 0 0 0 0 0 0 0 0 0 0 0 0 0 0 0 0 0 
