P3
12 32
255
0 0 0 0 0 0 0 0 0 0 0 0 0 0 0 0 0 0 0 0 0 0 0 0 0 0 0 0 0 0 0 0 0 0 0 0 
0 0 0 255 255 255 255 145 0 255 145 0 255 145 0 255 145 0 255 255 255 255 145 0 255 255 255 255 255 255 255 145 0 0 0 0 
0 0 0 255 255 255 255 145 0 255 145 0 255 145 0 255 255 255 255 145 0 255 145 0 255 145 0 255 145 0 255 145 0 0 0 0 
0 0 0 255 255 255 255 255 255 255 255 255 255 145 0 255 145 0 255 145 0 255 255 255 255 255 255 255 255 255 255 255 255 0 0 0 
0 0 0 255 255 255 255 145 0 255 255 255 255 255 255 255 145 0 255 255 255 255 255 255 255 255 255 255 255 255 255 145 0 0 0 0 
0 0 0 255 145 0 255 145 0 255 145 0 255 255 255 255 145 0 255 255 255 255 255 255 255 255 255 255 255 255 255 145 0 0 0 0 
0 0 0 255 255 255 255 255 255 255 145 0 255 145 0 255 255 255 255 145 0 255 255 255 255 145 0 255 145 0 255 255 255 0 0 0 
0 0 0 255 145 0 255 145 0 255 145 0 255 145 0 255 255 255 255 145 0 255 145 0 255 255 255 255 255 255 255 145 0 0 0 0 
0 0 0 255 145 0 255 255 255 255 255 255 255 145 0 255 255 255 255 145 0 255 255 255 255 255 255 255 255 255 255 255 255 0 0 0 
0 0 0 255 255 255 255 145 0 255 145 0 255 255 255 255 145 0 255 255 255 255 255 255 255 255 255 255 255 255 255 255 255 0 0 0 
0 0 0 255 255 255 255 145 0 255 145 0 255 255 255 255 255 255 255 145 0 255 145 0 255 145 0 255 255 255 255 255 255 0 0 0 
0 0 0 255 255 255 255 145 0 255 255 255 255 145 0 255 145 0 255 145 0 255 255 255 255 145 0 255 145 0 255 255 255 0 0 0 
0 0 0 255 145 0 255 145 0 255 145 0 255 255 255 255 255 255 255 255 255 255 145 0 255 255 255 255 255 255 255 145 0 0 0 0 
0 0 0 255 145 0 255 255 255 255 145 0 255 255 255 255 145 0 255 255 255 255 255 255 255 145 0 255 255 255 255 145 0 0 0 0 
0 0 0 255 145 0 255 145 0 255 145 0 255 145 0 255 255 255 255 255 255 255 255 255 255 255 255 255 145 0 255 255 255 0 0 0 
0 0 0 255 255 255 255 145 0 255 145 0 255 145 0 255 145 0 255 145 0 255 145 0 255 255 255 255 255 255 255 145 0 0 0 0 
0 0 0 255 255 255 255 145 0 255 255 255 255 145 0 255 145 0 255 145 0 255 255 255 255 145 0 255 255 255 255 145 0 0 0 0 
0 0 0 255 255 255 255 145 0 255 145 0 255 255 255 255 145 0 255 145 0 255 255 255 255 255 255 255 255 255 255 145 0 0 0 0 
0 0 0 255 145 0 255 145 0 255 255 255 255 255 255 255 255 255 255 145 0 255 145 0 255 145 0 255 255 255 255 255 255 0 0 0 
0 0 0 255 255 255 255 145 0 255 255 255 255 255 255 255 145 0 255 145 0 255 145 0 255 145 0 255 145 0 255 255 255 0 0 0 
0 0 0 255 255 255 255 255 255 255 145 0 255 255 255 255 145 0 255 255 255 255 145 0 255 255 255 255 145 0 255 145 0 0 0 0 
0 0 0 255 255 255 255 145 0 255 145 0 255 145 0 255 145 0 255 255 255 255 145 0 255 145 0 255 145 0 255 145 0 0 0 0 
0 0 0 255 145 0 255 145 0 255 145 0 255 255 255 255 255 255 255 145 0 255 145 0 255 145 0 255 145 0 255 145 0 0 0 0 
0 0 0 255 255 255 255 255 255 255 255 255 255 145 0 255 145 0 255 255 255 255 145 0 255 145 0 255 145 0 255 145 0 0 0 0 
0 0 0 255 255 255 255 145 0 255 145 0 255 145 0 255 145 0 255 255 255 255 255 255 255 145 0 255 145 0 255 145 0 0 0 0 
0 0 0 255 255 255 255 145 0 255 145 0 255 255 255 255 145 0 255 145 0 255 145 0 255 145 0 255 255 255 255 145 0 0 0 0 
0 0 0 255 255 255 255 255 255 255 145 0 255 255 255 255 145 0 255 255 255 255 145 0 255 145 0 255 145 0 255 145 0 0 0 0 
0 0 0 255 255 255 255 255 255 255 255 255 255 145 0 255 255 255 255 145 0 255 255 255 255 145 0 255 255 255 255 255 255 0 0 0 
0 0 0 255 145 0 255 255 255 255 255 255 255 145 0 255 255 255 255 145 0 255 255 255 255 145 0 255 145 0 255 255 255 0 0 0 
0 0 0 255 145 0 255 145 0 255 255 255 255 145 0 255 255 255 255 145 0 255 145 0 255 255 255 255 145 0 255 145 0 0 0 0 
0 0 0 255 255 255 255 145 0 255 255 255 255 255 255 255 255 255 255 255 255 255 255 255 255 255 255 255 145 0 255 255 255 0 0 0 
0 0 0 0 0 0 0 0 0 0 0 0 0 0 0 0 0 0 0 0 0 0 0 0 0 0 0 0 0 0 0 0 0 0 0 0 
